<!-- Generated by IcoMoon.io -->
<svg version="1.1" xmlns="http://www.w3.org/2000/svg" fill="currentColor"
     viewBox="0 0 19 18">
    <title>bank</title>
    <path fill="currentColor"
          d="M9.643 0l9.643 3.857v1.286h-1.286c0 0.352-0.311 0.643-0.693 0.643h-15.328c-0.382 0-0.693-0.291-0.693-0.643h-1.286v-1.286zM2.571 6.429h2.571v7.714h1.286v-7.714h2.571v7.714h1.286v-7.714h2.571v7.714h1.286v-7.714h2.571v7.714h0.593c0.382 0 0.693 0.291 0.693 0.643v0.643h-16.714v-0.643c0-0.352 0.311-0.643 0.693-0.643h0.593v-7.714zM18.593 16.071c0.382 0 0.693 0.291 0.693 0.643v1.286h-19.286v-1.286c0-0.352 0.311-0.643 0.693-0.643h17.9z"></path>
</svg>
