<!-- Generated by IcoMoon.io -->
<svg version="1.1" xmlns="http://www.w3.org/2000/svg" viewBox="0 0 57 32">
    <title>blik</title>
    <path d="M28.425 27.653c-6.606 0-13.212 0-19.818 0-0.829 0-1.659-0.057-2.402-0.486-1.401-0.772-2.116-2.002-2.116-3.546-0.057-5.090-0.029-10.152 0-15.242 0-1.887 1.315-3.575 3.088-3.975 0.629-0.143 1.258-0.114 1.887-0.114 9.408 0 18.817 0 28.225 0 3.775 0 7.521 0 11.296 0 0.886 0 1.773 0.114 2.517 0.686 1.087 0.801 1.744 1.83 1.744 3.231 0 5.147-0.029 10.295 0.029 15.414 0.029 2.116-1.716 3.946-3.946 3.975-0.572 0-1.144 0-1.716 0-6.291 0.057-12.525 0.057-18.788 0.057 0 0 0 0 0 0zM28.454 5.433c0 0 0 0 0 0-4.747 0-9.466 0-14.213 0-2.145 0-4.261-0.029-6.406 0.029-1.516 0.029-2.66 1.315-2.66 2.831 0 5.205 0 10.381 0 15.585 0 0.172 0 0.343 0.029 0.486 0.229 1.201 1.373 2.202 2.631 2.259 0.972 0.029 1.973 0 2.946 0 12.611 0 25.223 0 37.862 0.029 1.916 0 3.146-1.516 3.117-3.088-0.057-3.117-0.029-6.234-0.029-9.351 0-1.945 0-3.889 0-5.862 0-1.058-0.458-1.859-1.315-2.431-0.601-0.4-1.315-0.458-2.002-0.458-6.635-0.029-13.298-0.029-19.961-0.029z"></path>
    <path d="M12.668 13.641c0-1.744 0-3.46 0-5.205 0-0.257 0.057-0.372 0.343-0.372 0.686 0.029 1.401 0.029 2.088 0 0.286 0 0.315 0.086 0.315 0.343-0.029 1.773 0 3.546-0.029 5.319 0 0.286 0.114 0.257 0.315 0.2 0.858-0.286 1.716-0.543 2.631-0.458 2.116 0.229 3.803 1.287 4.604 3.489 0.858 2.345-0.057 4.661-1.573 5.948-2.231 1.887-5.319 1.687-7.321-0.458-0.972-1.058-1.373-2.345-1.401-3.775 0-1.659 0.029-3.346 0.029-5.033 0 0 0 0 0 0zM15.385 18.845c-0.057 1.659 1.43 2.545 2.459 2.574 1.487 0.029 2.774-1.23 2.745-2.688 0-1.401-1.144-2.517-2.574-2.517-1.458-0.057-2.602 1.115-2.631 2.631z"></path>
    <path d="M38.777 18.359c0.229-0.114 0.343-0.229 0.458-0.372 1.029-1.23 2.059-2.517 3.003-3.803 0.286-0.372 0.601-0.601 1.115-0.572 0.801 0.057 1.601 0 2.488 0-0.229 0.286-0.4 0.543-0.601 0.772-1.001 1.201-1.973 2.402-2.974 3.603-0.229 0.286-0.172 0.515 0 0.772 0.372 0.515 0.744 1.001 1.115 1.516 0.858 1.115 1.744 2.202 2.602 3.317 0.057 0.057 0.086 0.143 0.143 0.2 0.029 0.057 0.114 0.114 0.057 0.2-0.029 0.086-0.114 0.029-0.2 0.029-0.972 0-1.945 0-2.917 0-0.229 0-0.343-0.086-0.458-0.257-1.172-1.516-2.202-3.174-3.346-4.718-0.143-0.2-0.315-0.4-0.515-0.572-0.086 0.143-0.057 0.257-0.057 0.4 0 1.601 0 3.203 0.029 4.833 0 0.229-0.057 0.257-0.257 0.257-0.744 0-1.458 0-2.202 0-0.229 0-0.257-0.086-0.257-0.286 0-4.947 0-9.895 0-14.813 0-0.715 0-0.715 0.744-0.715 0.572 0 1.144 0 1.716 0 0.257 0 0.315 0.057 0.315 0.315 0 3.088 0 6.177 0 9.265 0.029 0.172 0 0.372 0 0.629z"></path>
    <path d="M25.394 16.072c0-2.574 0-5.119 0-7.693 0-0.257 0.057-0.315 0.315-0.315 0.744 0.029 1.487 0 2.231 0 0.172 0 0.257 0.057 0.257 0.229 0 0.343 0 0.715 0 1.058 0 4.49 0 8.979 0 13.469 0 0.315-0.029 0.601-0.029 0.915 0 0.2-0.057 0.286-0.286 0.286-0.715 0-1.43 0-2.145 0.029-0.286 0-0.343-0.057-0.343-0.343 0-2.545 0-5.090 0-7.635 0 0 0 0 0 0z"></path>
    <path d="M33.401 18.845c0 1.659-0.057 3.317 0.057 4.947 0 0.2-0.057 0.229-0.257 0.229-0.744 0-1.487 0-2.231 0-0.229 0-0.286-0.086-0.286-0.286 0-3.317 0-6.606 0-9.923 0-0.257 0.086-0.315 0.343-0.315 0.686 0.029 1.344 0.057 2.030 0.057 0.286 0 0.372 0.086 0.372 0.372-0.029 1.659-0.029 3.289-0.029 4.919z"></path>
    <path d="M20.962 7.264c1.23 0.029 2.431 1.315 2.374 2.545-0.086 1.401-1.258 2.402-2.517 2.402-1.373 0-2.459-1.172-2.431-2.602 0-1.315 1.144-2.374 2.574-2.345z"></path>
</svg>
