<!-- Generated by IcoMoon.io -->
<svg version="1.1" xmlns="http://www.w3.org/2000/svg"
     viewBox="0 0 23 18">
    <title>handshake</title>
    <path d="M1.929 11.571c0.844 0 0.844-1.286 0-1.286s-0.844 1.286 0 1.286zM16.724 10.989c-0.794-1.035-1.567-2.089-2.471-3.033l-1.256 1.406c-1.105 1.256-3.084 1.225-4.158-0.060-0.763-0.924-0.763-2.25 0.020-3.164l1.778-2.069c-0.623-0.321-1.376-0.211-2.049-0.211-0.593 0-1.165 0.241-1.587 0.663l-1.587 1.587h-1.557v5.464c0.442 0 0.844-0.060 1.195 0.281l2.983 2.933c0.613 0.593 1.406 1.115 2.28 1.115 0.452 0 0.934-0.151 1.256-0.472 0.753 0.261 1.627-0.161 1.858-0.934 0.482 0.040 0.924-0.11 1.276-0.442 0.231-0.211 0.532-0.633 0.502-0.964 0.090 0.090 0.311 0.1 0.432 0.1 1.195 0 1.818-1.256 1.085-2.2zM18.321 11.571h0.964v-5.143h-0.934l-1.577-1.808c-0.422-0.482-1.055-0.763-1.698-0.763h-1.677c-0.563 0-1.105 0.251-1.467 0.673l-2.099 2.441c-0.372 0.442-0.372 1.065-0.010 1.507 0.573 0.683 1.627 0.693 2.22 0.030l1.939-2.19c0.462-0.512 1.306-0.030 1.095 0.623 0.382 0.442 0.794 0.874 1.165 1.316 0.502 0.623 0.984 1.276 1.477 1.908 0.311 0.402 0.542 0.884 0.603 1.406zM21.214 11.571c0.844 0 0.844-1.286 0-1.286s-0.844 1.286 0 1.286zM23.143 5.786v6.429c0 0.352-0.291 0.643-0.643 0.643h-4.359c-0.362 0.874-1.155 1.456-2.079 1.587-0.432 0.633-1.095 1.115-1.838 1.276-0.552 0.703-1.446 1.125-2.34 1.065-1.657 0.934-3.526 0.121-4.761-1.095l-2.883-2.833h-3.596c-0.352 0-0.643-0.291-0.643-0.643v-6.75c0-0.352 0.291-0.643 0.643-0.643h4.229c1.165-1.165 1.969-2.25 3.717-2.25h1.175c0.653 0 1.286 0.201 1.818 0.563 0.532-0.362 1.165-0.563 1.818-0.563h1.677c1.908 0 2.702 1.246 3.857 2.571h3.566c0.352 0 0.643 0.291 0.643 0.643z"></path>
</svg>
