<!-- Generated by IcoMoon.io -->
<svg version="1.1" xmlns="http://www.w3.org/2000/svg" width="21" height="18" viewBox="0 0 21 18">
<title>map</title>
<path d="M20.29 0.11c0.171 0.121 0.281 0.321 0.281 0.532v14.143c0 0.261-0.161 0.502-0.402 0.593l-6.429 2.571c-0.161 0.070-0.321 0.070-0.482 0l-6.188-2.471-6.188 2.471c-0.080 0.040-0.161 0.050-0.241 0.050-0.131 0-0.251-0.040-0.362-0.11-0.171-0.121-0.281-0.321-0.281-0.532v-14.143c0-0.261 0.161-0.502 0.402-0.593l6.429-2.571c0.161-0.070 0.321-0.070 0.482 0l6.188 2.471 6.188-2.471c0.201-0.080 0.422-0.060 0.603 0.060zM7.393 1.467v12.757l5.786 2.31v-12.757zM1.286 3.646v12.757l5.464-2.18v-12.757zM19.286 14.354v-12.757l-5.464 2.18v12.757z"></path>
</svg>
