<!-- Generated by IcoMoon.io -->
<svg version="1.1" xmlns="http://www.w3.org/2000/svg"
     viewBox="0 0 77 32" >
<title>mila-florystyka</title>
<path d="M52.313 2.062c-1.168-0.651-5.086 3.4-8.383 9.114-0.924 1.634-1.767 3.156-2.447 4.546-3.216 3.023-7.924 7.045-10.482 7.045-0.296 0-0.569-0.052-0.791-0.163-0.517-0.244-0.732-0.82-0.732-1.634 0-1.878 1.183-5.004 2.602-8.028v0.007c1.848-2.506 4.258-5.64 5.588-7.791 1.227-1.988 2.121-3.866 1.523-4.14-0.924-0.377-3.622 3.592-6.527 9.336-0.192 0.325-0.355 0.68-0.569 1.057l-0.362 0.643c-0.296 0.325-0.591 0.673-0.917 0.991-3.622 3.836-11.317 8.464-17.822 9.521-1.39 0.214-2.639 0.325-3.755 0.325-3.947 0-6.098-1.308-6.719-3.134-0.133-0.407-0.214-0.813-0.214-1.279 0-2.883 3.023-6.719 11.428-8.545 1.915-0.436 3.829-0.628 5.655-0.65v0.007c-0.089 1.020 0.133 2.062 0.828 2.89 0.591 0.82 1.427 1.493 2.447 1.885 0.51 0.207 1.042 0.392 1.619 0.384 0.362 0.015 0.724-0.030 1.064-0.148 0.177-0.059 0.37-0.133 0.466-0.288 0.155-0.318-0.251-0.54-0.517-0.658-0.044-0.015-0.111-0.044-0.14-0.052l0.089 0.044c0.192 0.126 0.636 0.407 0.399 0.636-0.111 0.074-0.244 0.111-0.377 0.148-0.214 0.052-0.37 0.081-0.636 0.089-0.214 0-0.687-0.007-1.079-0.118-0.784-0.237-1.744-0.673-2.388-1.286-0.177-0.177-0.355-0.377-0.532-0.591 0.355 0.059 0.717 0.096 1.079 0.030 0.325-0.059 0.813-0.222 0.998-0.377-0.68 0.207-1.323 0.296-2.077 0.34-0.333-0.414-0.643-0.887-0.843-1.375 0.562-0.015 1.471-0.281 1.464-0.865 0-0.17-0.022 0.037-0.059 0.104-0.074 0.177-0.251 0.281-0.436 0.377-0.303 0.17-0.621 0.288-0.968 0.384-0.044-0.111-0.089-0.229-0.126-0.347-0.118-0.362-0.17-0.769-0.207-1.19h0.015c-0.007-0.015-0.015-0.030-0.022-0.044 0-0.067-0.007-0.14-0.015-0.207-0.007 0.052-0.015 0.096-0.015 0.14-0.074-0.177-0.096-0.377-0.067-0.562 0.17 0.466 0.392 1.020 0.554 1.404-0.185-0.857-0.399-1.656-0.547-2.343-0.185-0.798 0.007-1.471 0.614-2.070 0.325-0.266 0.673-0.503 0.983-0.776-0.362 0.259-0.784 0.458-1.146 0.717-1.057 0.909-0.931 1.833-0.503 2.949 0.007 0.022 0.015 0.044 0.022 0.059-1.885 0.030-3.859 0.251-5.928 0.702-7.762 1.737-12.145 5.492-12.145 9.55 0 0.599 0.111 1.198 0.296 1.826 1.005 3.267 4.627 4.546 8.575 4.546 1.848 0 3.755-0.273 5.5-0.761 6.231-1.744 11.155-5.936 15.213-10.393-1.146 2.425-2.203 5.167-2.203 7.074 0 1.035 0.325 1.796 1.087 2.151 0.325 0.163 0.68 0.214 1.087 0.214 2.587 0 6.424-3.023 9.957-6.283-1.146 2.476-1.826 4.598-1.826 5.958 0 0.813 0.244 1.36 0.813 1.552 1.227 0.407 2.528-0.872 2.994-1.582 0.133-0.244 0.133-0.384 0.052-0.407-0.081-0.030-0.244 0.030-0.377 0.214-0.466 0.599-1.493 1.634-2.284 1.227-0.894-0.488 0.791-4.871 3.238-9.499l0.71-0.71c4.391-4.332 9.587-11.162 8.227-11.894zM44.367 12.892c3.208-5.581 6.424-10.341 7.237-9.854 0.599 0.355-4.627 7.266-7.237 9.854z"></path>
<path d="M54.76 8.102c-0.407 0-1.146 0.68-1.604 1.523-0.488 0.843-0.547 1.523-0.133 1.523s1.146-0.68 1.604-1.523c0.488-0.843 0.54-1.523 0.133-1.523z"></path>
<path d="M75.605 17.083c-0.111 0-0.214 0.030-0.296 0.111-0.488 0.651-2.447 2.365-3.319 3.075-1.005 0.813-2.912 2.232-3.836 2.232-0.273 0-0.466-0.133-0.466-0.547 0-1.087 0.732-2.395 2.121-4.546 1.279-1.988 3.075-4.354 3.075-4.576 0-0.081-0.111-0.111-0.273-0.111-0.599 0-0.569 0.052-1.412 0.894v-0.192c0-0.517-0.325-1.035-1.331-1.035-1.907 0-5.418 1.826-7.836 4.901-0.089 0.111-0.17 0.222-0.259 0.333-0.769 0.791-2.21 2.055-2.927 2.632-1.035 0.813-2.912 2.232-3.866 2.232-0.384 0-0.651-0.222-0.651-0.813 0-3.43 7.895-14.747 10.888-19.16 0.813 0.133 1.441 0.377 1.826 0.547h-0.030c0.776 0.414 1.212 0.85 1.212 0.85l0.325-0.081 0.030-0.052c0-0.133-0.68-1.198-3.023-1.767l0.192-0.274c0-0.030 0.030-0.052 0.030-0.081 0-0.214-0.599-0.377-0.924-0.377-0.081 0-0.133 0-0.163 0.030-0.081 0.052-0.273 0.192-0.488 0.466-0.599-0.081-1.308-0.133-2.070-0.133-3.238 0-5.248 1.116-5.248 2.476 0 1.471 1.929 1.685 2.639 1.685 0.761 0 1.064-0.244 1.064-0.488s-0.273-0.488-0.68-0.488c-0.273 0-0.628 0.133-0.954 0.488-0.68-0.111-1.249-0.384-1.249-0.902 0-1.39 2.72-2.092 5.256-2.092 0.273 0 0.517 0.030 0.791 0.030-2.41 2.957-8.346 11.561-10.46 16.536-0.599 0.54-1.212 1.064-1.611 1.382-0.843 0.68-2.314 1.796-3.319 2.122-0.628 0.222-1.087 0.163-0.954-0.71 0.133-1.057 0.813-2.284 2.092-4.273 1.249-1.959 2.669-3.918 3.045-4.487 0.214-0.303-0.68-0.192-0.872-0.052-0.384 0.303-2.609 2.698-3.755 4.162-0.791 1.005-2.284 2.942-2.558 4.162-0.192 0.872 0 2.070 1.412 2.255 1.471 0.192 3.977-1.715 4.982-2.476 0.296-0.229 0.665-0.525 1.057-0.857-0.192 0.584-0.296 1.087-0.296 1.478 0 1.279 0.651 1.848 1.715 1.848 1.441 0 3.674-1.744 4.679-2.476 0.466-0.347 1.109-0.88 1.737-1.427-0.281 0.68-0.407 1.294-0.407 1.833 0 1.198 0.68 2.070 1.685 2.070 1.308 0 2.639-1.116 3.785-2.425-0.081 0.273-0.133 0.547-0.133 0.791 0 0.843 0.547 1.663 1.715 1.663 1.471-0.030 3.807-1.796 4.76-2.506 1.064-0.791 3.046-2.528 3.674-3.297 0.111-0.133 0.163-0.273 0.163-0.355 0.007-0.148-0.126-0.229-0.288-0.229zM67.142 18.584c-1.146 1.552-3.482 4.080-4.546 4.080-0.407 0-0.628-0.407-0.628-0.954-0.030-1.146 0.954-3.208 2.942-5.47 1.826-2.070 3.807-3.238 4.842-3.238 0.599 0 0.813 0.407 0.813 0.843 0 0.325-0.133 0.71-0.325 0.924-1.168 1.331-2.033 2.395-3.097 3.814z"></path>
<path d="M25.672 28.053h-0.007c0-0.081-0.037-0.148-0.096-0.2s-0.133-0.081-0.222-0.081h-0.074v-0.052h0.473l-0.074 0.333zM25.672 30.581l0.067 0.34h-0.473v-0.052h0.074c0.089 0 0.163-0.030 0.222-0.089s0.089-0.126 0.096-0.2h0.015zM25.998 27.713v3.208h-0.34v-3.208h0.34zM25.983 30.581h0.007c0 0.081 0.037 0.148 0.096 0.2 0.059 0.059 0.133 0.089 0.222 0.089h0.074v0.052h-0.473l0.074-0.34zM27.454 27.713v0.163h-1.464v-0.163h1.464zM27.203 29.235v0.163h-1.212v-0.163h1.212zM27.454 27.631v0.14l-0.614-0.052c0.074 0 0.155-0.007 0.237-0.015s0.155-0.022 0.229-0.037c0.059-0.015 0.111-0.030 0.148-0.037zM27.203 28.947v0.303h-0.281v-0.007c0.081 0 0.133-0.022 0.17-0.067s0.052-0.096 0.052-0.155v-0.067h0.059v-0.007zM27.203 29.391v0.303h-0.059v-0.067c0-0.059-0.015-0.111-0.052-0.155s-0.089-0.067-0.17-0.067v-0.007h0.281v-0.007zM27.454 27.868v0.37h-0.059v-0.081c0-0.074-0.022-0.14-0.074-0.192s-0.111-0.081-0.192-0.081v-0.015h0.325z"></path>
<path d="M30.329 28.060h-0.007c0-0.081-0.037-0.148-0.096-0.207-0.059-0.052-0.133-0.081-0.222-0.081h-0.067v-0.052h0.399v0.34h-0.007zM30.329 30.581l0.067 0.34h-0.458v-0.052h0.074c0.089 0 0.163-0.030 0.222-0.089s0.089-0.126 0.089-0.2h0.007zM30.662 27.713v3.208h-0.34v-3.208h0.34zM30.647 28.060v-0.34h0.399v0.052h-0.067c-0.089 0-0.163 0.030-0.222 0.081s-0.096 0.126-0.096 0.207h-0.015zM32.103 30.758l-0.007 0.163h-1.441v-0.163h1.449zM32.399 30.159l-0.296 0.761h-0.813l0.185-0.163c0.177 0 0.325-0.022 0.429-0.074 0.111-0.052 0.2-0.126 0.266-0.214s0.126-0.192 0.177-0.31h0.052z"></path>
<path d="M36.42 27.639c0.251 0 0.48 0.037 0.702 0.118s0.414 0.192 0.577 0.347c0.163 0.148 0.296 0.325 0.384 0.532 0.096 0.207 0.14 0.429 0.14 0.68s-0.044 0.473-0.14 0.68c-0.096 0.207-0.222 0.384-0.384 0.532s-0.355 0.266-0.577 0.347-0.451 0.118-0.702 0.118-0.48-0.037-0.702-0.118c-0.214-0.081-0.407-0.192-0.577-0.347-0.163-0.148-0.296-0.325-0.384-0.532-0.096-0.207-0.14-0.429-0.14-0.68s0.044-0.473 0.14-0.68c0.096-0.207 0.222-0.384 0.384-0.532s0.355-0.266 0.577-0.347c0.222-0.074 0.451-0.118 0.702-0.118zM36.42 30.839c0.266 0 0.503-0.067 0.717-0.192s0.384-0.303 0.51-0.532c0.126-0.229 0.185-0.495 0.185-0.791s-0.059-0.569-0.185-0.791c-0.126-0.229-0.296-0.407-0.51-0.532s-0.451-0.192-0.717-0.192-0.495 0.067-0.71 0.192-0.384 0.303-0.51 0.532c-0.126 0.229-0.185 0.488-0.185 0.791s0.059 0.562 0.185 0.791 0.296 0.407 0.51 0.532c0.214 0.126 0.451 0.192 0.71 0.192z"></path>
<path d="M40.967 28.053h-0.015c0-0.081-0.037-0.148-0.089-0.2-0.059-0.052-0.126-0.081-0.214-0.081h-0.074v-0.052h0.451l-0.059 0.333zM40.967 30.581l0.067 0.34h-0.451v-0.052h0.074c0.089 0 0.155-0.030 0.214-0.089s0.089-0.126 0.089-0.2h0.007zM41.292 27.713v3.208h-0.34v-3.208h0.34zM41.277 30.581h0.015c0 0.081 0.037 0.148 0.089 0.2 0.059 0.059 0.126 0.089 0.214 0.089h0.067l0.007 0.052h-0.458l0.067-0.34zM41.92 27.713c0.17 0 0.318 0.022 0.451 0.059s0.251 0.096 0.34 0.17c0.096 0.074 0.17 0.163 0.214 0.273 0.052 0.104 0.074 0.229 0.074 0.362 0 0.148-0.037 0.288-0.103 0.414-0.074 0.126-0.17 0.237-0.296 0.318s-0.273 0.133-0.429 0.148c0.059 0.022 0.133 0.081 0.214 0.163 0.081 0.089 0.148 0.17 0.207 0.251 0.096 0.126 0.177 0.229 0.251 0.325 0.074 0.089 0.148 0.177 0.214 0.259 0.074 0.081 0.14 0.155 0.207 0.214 0.059 0.059 0.133 0.111 0.2 0.14 0.074 0.037 0.155 0.052 0.251 0.052v0.052h-0.163c-0.2 0-0.355-0.022-0.48-0.074s-0.229-0.111-0.31-0.185c-0.081-0.074-0.148-0.14-0.2-0.214-0.015-0.015-0.044-0.067-0.096-0.133-0.052-0.074-0.111-0.155-0.17-0.237-0.059-0.089-0.118-0.163-0.163-0.229-0.052-0.067-0.081-0.111-0.089-0.126-0.074-0.096-0.155-0.177-0.244-0.251-0.096-0.074-0.192-0.111-0.296-0.111v-0.052h0.303c0.096 0 0.2-0.015 0.303-0.022 0.096-0.015 0.192-0.052 0.281-0.118s0.155-0.17 0.207-0.318c0.015-0.037 0.022-0.089 0.030-0.14s0.007-0.111 0.007-0.163c0-0.096-0.022-0.192-0.059-0.266-0.037-0.081-0.081-0.148-0.148-0.2-0.059-0.059-0.133-0.104-0.222-0.133s-0.185-0.052-0.288-0.052c-0.17-0.007-0.31-0.007-0.436-0.007h-0.185s-0.007-0.022-0.015-0.044c-0.007-0.030-0.022-0.067-0.037-0.118h0.673v-0.007z"></path>
<path d="M46.244 28.053l-0.451-0.015c-0.059-0.081-0.126-0.148-0.214-0.192-0.081-0.052-0.177-0.074-0.281-0.074h-0.059v-0.052h1.242v0.052h-0.067c-0.081 0-0.133 0.030-0.17 0.096-0.030 0.059-0.030 0.118 0 0.185zM46.060 27.72l0.991 1.759-0.222 0.185-1.234-1.944h0.466zM46.799 30.581v0.34h-0.392v-0.052h0.067c0.089 0 0.155-0.030 0.214-0.089s0.089-0.126 0.096-0.2h0.015zM47.131 29.546v1.382h-0.347v-1.382h0.347zM48.026 27.72h0.34l-1.271 1.937-0.2-0.059 1.131-1.878zM47.117 30.581h0.015c0 0.081 0.037 0.148 0.096 0.2 0.059 0.059 0.133 0.089 0.214 0.089h0.067v0.052h-0.392v-0.34zM47.826 28.060c0.037-0.074 0.044-0.14 0.007-0.2s-0.096-0.089-0.17-0.089h-0.067v-0.052h1.116v0.052h-0.067c-0.103 0-0.192 0.030-0.281 0.081s-0.155 0.118-0.207 0.192l-0.333 0.015z"></path>
<path d="M51.811 27.639c0.096 0 0.185 0 0.259 0.007s0.14 0.015 0.192 0.022c0.052 0.007 0.103 0.022 0.148 0.030 0.044 0.015 0.074 0.022 0.111 0.037l0.007 0.532h-0.067c0-0.148-0.052-0.259-0.148-0.347-0.103-0.081-0.251-0.126-0.466-0.126-0.177 0-0.333 0.052-0.458 0.148s-0.185 0.222-0.185 0.362c0 0.044 0.007 0.096 0.022 0.14 0.015 0.052 0.037 0.096 0.067 0.14s0.074 0.096 0.126 0.14l1.079 0.835c0.081 0.067 0.14 0.155 0.185 0.259 0.037 0.104 0.059 0.207 0.067 0.31 0 0.155-0.037 0.303-0.126 0.436s-0.2 0.237-0.347 0.31-0.303 0.118-0.48 0.118c-0.103 0-0.214-0.007-0.333-0.030-0.118-0.015-0.229-0.044-0.333-0.081s-0.192-0.081-0.259-0.14c-0.007-0.052-0.015-0.111-0.015-0.192 0-0.074 0.007-0.155 0.022-0.244s0.030-0.163 0.052-0.229h0.067c-0.015 0.163 0.007 0.296 0.067 0.414 0.059 0.111 0.148 0.2 0.266 0.259s0.251 0.089 0.414 0.081c0.222-0.007 0.392-0.067 0.525-0.17 0.126-0.104 0.192-0.244 0.192-0.421 0-0.089-0.015-0.163-0.044-0.229s-0.081-0.133-0.148-0.192l-1.072-0.82c-0.103-0.089-0.17-0.177-0.2-0.281-0.037-0.104-0.052-0.2-0.052-0.296 0-0.148 0.037-0.281 0.118-0.399s0.185-0.214 0.318-0.281c0.111-0.067 0.259-0.104 0.429-0.104zM52.513 27.69l0.007 0.096h-0.377v-0.096h0.37z"></path>
<path d="M54.982 27.624c0.030 0.007 0.081 0.022 0.148 0.037s0.14 0.030 0.222 0.037 0.155 0.015 0.229 0.015l-0.599 0.052v-0.14zM57.916 27.713v0.163h-2.935v-0.163h2.935zM55.307 27.86v0.007c-0.081 0-0.148 0.030-0.192 0.081-0.052 0.052-0.074 0.118-0.074 0.192v0.089h-0.059v-0.37h0.325zM56.283 30.581v0.34h-0.392v-0.052h0.067c0.089 0 0.155-0.030 0.222-0.089 0.059-0.059 0.096-0.126 0.096-0.2h0.007zM56.623 27.727v3.193h-0.347v-3.193h0.347zM56.601 30.581h0.015c0 0.081 0.037 0.148 0.096 0.2 0.059 0.059 0.133 0.089 0.222 0.089h0.059v0.052h-0.392v-0.34zM57.916 27.624v0.14l-0.599-0.052c0.074 0 0.148-0.007 0.229-0.015s0.155-0.022 0.222-0.037c0.059-0.015 0.111-0.030 0.148-0.037zM57.916 27.86v0.37h-0.059v-0.089c0-0.074-0.022-0.14-0.074-0.192s-0.111-0.081-0.192-0.081v-0.007h0.325z"></path>
<path d="M60.895 28.053l-0.451-0.015c-0.059-0.081-0.126-0.148-0.214-0.192-0.081-0.052-0.177-0.074-0.281-0.074h-0.067v-0.052h1.242v0.052h-0.067c-0.081 0-0.133 0.030-0.17 0.096-0.030 0.059-0.030 0.118 0.007 0.185zM60.711 27.72l0.991 1.759-0.222 0.185-1.234-1.944h0.466zM61.45 30.581v0.34h-0.392v-0.052h0.067c0.089 0 0.155-0.030 0.214-0.089s0.089-0.126 0.096-0.2h0.015zM61.775 29.546v1.382h-0.347v-1.382h0.347zM62.677 27.72h0.34l-1.271 1.937-0.2-0.059 1.131-1.878zM61.76 30.581h0.015c0 0.081 0.037 0.148 0.096 0.2 0.059 0.059 0.133 0.089 0.214 0.089h0.067v0.052h-0.392v-0.34zM62.47 28.060c0.037-0.074 0.044-0.14 0.007-0.2s-0.096-0.089-0.17-0.089h-0.067v-0.052h1.116v0.052h-0.067c-0.096 0-0.192 0.030-0.281 0.081s-0.155 0.118-0.207 0.192l-0.333 0.015z"></path>
<path d="M65.892 28.060h-0.007c0-0.081-0.037-0.148-0.096-0.207-0.059-0.052-0.133-0.081-0.222-0.081h-0.067v-0.052h0.392v0.34zM65.892 30.581v0.34h-0.392v-0.052h0.067c0.089 0 0.155-0.030 0.222-0.089 0.059-0.059 0.096-0.126 0.096-0.2h0.007zM66.218 27.713v3.208h-0.34v-3.208h0.34zM66.203 28.060v-0.34h0.392v0.052h-0.067c-0.089 0-0.155 0.030-0.222 0.081-0.059 0.052-0.089 0.126-0.089 0.207h-0.015zM66.203 30.581h0.015c0 0.081 0.030 0.148 0.089 0.2 0.059 0.059 0.133 0.089 0.222 0.089h0.059v0.052h-0.392v-0.34h0.007zM68.132 27.75l-1.478 1.575h-0.251l1.345-1.575h0.384zM66.705 29.132l1.397 1.515c0.059 0.074 0.126 0.126 0.192 0.163s0.155 0.052 0.273 0.059v0.052h-0.2c-0.044 0-0.096 0-0.155-0.007s-0.133-0.015-0.2-0.037c-0.074-0.022-0.148-0.052-0.222-0.089-0.074-0.044-0.14-0.096-0.207-0.17-0.111-0.126-0.207-0.237-0.296-0.333s-0.185-0.2-0.288-0.31-0.2-0.214-0.288-0.31-0.192-0.207-0.303-0.333l0.296-0.2zM68.48 27.713v0.052h-0.022c-0.111 0-0.214 0.015-0.31 0.052s-0.17 0.089-0.229 0.163l-0.362-0.007c0.037-0.052 0.044-0.096 0.022-0.14-0.030-0.044-0.074-0.067-0.133-0.067h-0.052v-0.052h1.087z"></path>
<path d="M71.178 30.529c-0.037 0.104-0.037 0.192 0.015 0.251s0.103 0.089 0.17 0.089h0.044v0.052h-1.020v-0.052h0.044c0.074 0 0.148-0.022 0.229-0.074s0.148-0.14 0.2-0.259h0.318v-0.007zM72.213 27.639l0.037 0.37-1.227 2.898h-0.34l1.264-2.713c0.037-0.089 0.074-0.163 0.096-0.222 0.030-0.059 0.052-0.126 0.074-0.185s0.037-0.111 0.037-0.148h0.059zM72.841 29.679v0.163h-1.419v-0.163h1.419zM72.213 27.639l1.471 3.252h-0.429l-1.138-2.772 0.096-0.48zM73.114 30.529h0.407c0.052 0.118 0.118 0.207 0.2 0.259s0.155 0.074 0.222 0.074h0.044v0.052h-1.101v-0.052h0.044c0.059 0 0.118-0.030 0.163-0.089 0.052-0.052 0.059-0.133 0.022-0.244z"></path>
<path d="M27.476 13.616c0.695-0.229 1.464-0.473 1.9-1.035 0.081-0.111 0.163-0.259 0.089-0.377-0.052-0.074-0.177-0.096-0.266-0.052-0.126 0.059-0.355 0.185-0.436 0.222-0.044 0.022-0.089 0.037-0.133 0.052 0.081-0.089 0.133-0.192 0.104-0.303-0.022-0.067-0.081-0.133-0.163-0.14-0.14 0-0.177 0.067-0.303 0.104-0.222 0.096-0.473 0.14-0.68 0.266 0.266-0.096 0.562-0.089 0.835-0.177 0.030-0.015 0.081-0.022 0.111-0.030 0.052 0.074-0.111 0.237-0.325 0.407-0.007 0-0.015 0-0.022 0.007h0.015c-0.17 0.14-0.377 0.281-0.547 0.399-0.126 0.089-0.259 0.177-0.392 0.266 0.059-0.022 0.118-0.044 0.177-0.067 0.355-0.148 0.71-0.318 1.013-0.547 0.030-0.022 0.059-0.052 0.089-0.074 0.244-0.037 0.473-0.111 0.702-0.2 0.007 0 0.022-0.007 0.030-0.007 0 0.007 0 0.015-0.007 0.015-0.044 0.118-0.266 0.288-0.325 0.333-0.569 0.384-0.968 0.488-1.648 0.798-0.414 0.185-0.828 0.392-1.279 0.488-0.037 0.007-0.074 0.015-0.104 0.022 0.059 0 0.111 0 0.17-0.007 0.48-0.044 0.939-0.214 1.397-0.362z"></path>
<path d="M31.017 10.075c0.333-0.259 0.237-0.665-0.030-0.924 0.148 0.288 0.244 0.65 0.007 0.924-0.007 0.007-0.015 0.015-0.022 0.022 0.007 0 0.030-0.015 0.044-0.022z"></path>
<path d="M29.598 12.027c0.37-0.14 0.636-0.34 0.31-0.658-0.2-0.17-0.473-0.229-0.71-0.347 0.237 0.214 0.636 0.347 0.702 0.606 0 0.037 0.007 0.059-0.022 0.096-0.126 0.14-0.414 0.296-0.628 0.407 0.118-0.022 0.229-0.059 0.347-0.104z"></path>
<path d="M26.316 12.81c0.355-0.067 0.68-0.222 0.998-0.392 0.259-0.14 0.51-0.288 0.732-0.473 0.14-0.118 0.288-0.266 0.296-0.444 0-0.096-0.067-0.192-0.177-0.222-0.022-0.007-0.044-0.007-0.067-0.007 0.067-0.030 0.126-0.059 0.185-0.096 0.192-0.148 0.244-0.281 0.207-0.399 0.207 0.081 0.421 0.163 0.636 0.222 0.288 0.074 0.628 0.14 0.909 0.015 0.355-0.207-0.022-0.399-0.273-0.451 0.177 0.096 0.48 0.274 0.177 0.355-0.384 0.067-0.88-0.074-1.323-0.133-0.044-0.007-0.096-0.015-0.133-0.022-0.118-0.274-0.724-0.436-1.079-0.31 0.222-0.022 0.421 0.044 0.614 0.133 0.163 0.067 0.296 0.163 0.303 0.274 0 0.177-0.259 0.333-0.488 0.444-0.163 0.015-0.325 0.022-0.495 0.022-0.791 0.030-1.685-0.118-2.558-0.251 0.628 0.185 1.257 0.377 1.922 0.458 0.436 0.052 0.88 0.074 1.316 0.022-0.118 0.251-0.68 0.65-1.116 0.931-0.192 0.126-0.392 0.237-0.621 0.318-0.037 0.022 0.015 0.015 0.037 0.007z"></path>
<path d="M25.155 13.017c0.14-0.31-0.31-0.835-0.584-0.998-0.192-0.118-0.414-0.044-0.628 0.022 0.34-0.177 0.68-0.429 0.717-0.769-0.037-0.266-0.229-0.495-0.392-0.717-0.495-0.614-1.382-0.237-1.87 0.207 0.392-0.251 0.931-0.466 1.345-0.347 0.288 0.074 0.525 0.517 0.673 0.747 0.222 0.362-0.51 0.813-0.946 1.109 0.111-0.052 0.251-0.111 0.407-0.185 0.192-0.030 0.414-0.081 0.569-0.015 0.148 0.081 0.259 0.229 0.355 0.377 0.074 0.118 0.192 0.318 0.192 0.444 0.022 0.118-0.288 0.355-0.614 0.458-0.244 0.067-0.525 0.089-0.784 0.111 0.525 0.059 1.257 0.052 1.56-0.444z"></path>
<path d="M21.651 11.236c-0.399 0.266-0.939 0.229-1.412 0.259 0.458 0.118 1.161 0.104 1.412-0.259z"></path>
<path d="M22.021 3.962c0.444-0.347 1.072-0.828 1.671-0.961 0.621-0.126 1.56-0.015 2.232 0.259 0.85 0.273 1.685 0.451 2.521 0.717-0.776-0.347-1.597-0.614-2.402-0.917-0.687-0.296-1.486-0.421-2.255-0.333-0.887 0.126-1.589 0.739-2.151 1.323-0.288 0.303-0.702 0.813-0.843 1.064 0.37-0.414 0.791-0.791 1.227-1.153z"></path>
<path d="M28.651 5.84c0.384-0.17 0.155-0.724-0.052-0.939-0.222-0.251-0.569-0.451-0.872-0.606 0.214-0.037 0.421-0.118 0.577-0.281-0.407 0.318-0.961 0.192-1.434 0.126-0.547-0.096-1.109-0.237-1.508-0.355-0.237-0.067-0.473-0.133-0.702-0.207 0.096 0.044 0.185 0.089 0.281 0.133 0.643 0.288 1.316 0.54 2.048 0.591 0.222 0.022 0.473 0.037 0.702 0 0.266 0.207 0.525 0.414 0.717 0.68 0.148 0.185 0.214 0.517 0.148 0.614-0.163-0.030-0.318-0.281-0.503-0.562-0.2-0.296-0.702-0.355-0.968-0.185-0.259 0.133-0.569-0.037-0.732-0.251 0.126 0.237 0.399 0.458 0.724 0.392 0.207-0.052 0.229-0.081 0.399-0.052 0.2 0.044 0.237 0.059 0.362 0.229 0.081 0.17 0.362 0.791 0.813 0.673z"></path>
<path d="M20.683 6.017c0.761-0.347 1.486-0.451 2.343-0.495 0.333-0.015 0.687 0.067 1.094 0.022 0.451-0.074 0.887-0.259 0.806-0.724 0.104 0.015 0.207 0.030 0.318 0.030 0.466 0.022 1.035-0.059 1.301-0.444-0.237 0.266-0.739 0.325-1.042 0.31-0.673-0.015-1.168-0.266-1.811-0.451-0.207-0.059-0.429-0.126-0.636-0.17 0.126 0.052 0.244 0.104 0.362 0.155 0.488 0.2 0.961 0.48 1.501 0.569 0.007 0.444-0.399 0.554-0.828 0.584-0.333 0-0.673-0.096-1.020-0.104-0.872-0.015-1.752 0.207-2.469 0.658-0.185 0.111-0.384 0.237-0.562 0.355 0.229-0.104 0.414-0.192 0.643-0.296z"></path>
<path d="M21.001 7.902c0.14-0.266 0.273-0.547 0.266-0.835-0.022-0.288-0.096-0.599-0.325-0.821-0.059-0.059-0.14-0.118-0.2-0.163 0.104 0.118 0.2 0.237 0.251 0.384 0.17 0.577 0 0.917-0.237 1.412-0.177 0.414-0.384 0.784-0.88 0.983 0.554-0.111 0.909-0.532 1.124-0.961z"></path>
<path d="M23.625 9.166c-0.096-0.31-0.532-0.407-0.82-0.554-0.34-0.133-0.68-0.281-1.057-0.325-0.325-0.037-0.658 0.007-0.976 0.074 0.34 0 0.651 0 0.991 0.089 0.251 0.067 0.599 0.237 0.865 0.362 0.325 0.163 0.724 0.296 0.747 0.421 0.155 0.229-0.562 0.887-0.776 1.175 0.355-0.303 1.153-0.761 1.027-1.242z"></path>
<path d="M26.596 10.474c0.377-0.562 0.488-1.020 0.355-1.471 0.059-0.059 0.126-0.118 0.177-0.185 0.155-0.155 0.273-0.325 0.362-0.51 0.85-0.111 1.767-0.104 2.528-0.488 0.155-0.089 0.288-0.296 0.163-0.444-0.081-0.096-0.222-0.111-0.34-0.148-0.015-0.007-0.037-0.007-0.052-0.015 0.022-0.007 0.052-0.015 0.074-0.030 0.177-0.074 0.362-0.155 0.473-0.31 0.037-0.044 0.059-0.096 0.089-0.148 0.074 0.030 0.133 0.059 0.185 0.089 0.17 0.104 0.347 0.2 0.436 0.34 0.059 0.118-0.044 0.517-0.2 0.665-0.266 0.259-0.843 0.488-1.242 0.68 0.325-0.089 0.732-0.163 1.057-0.318 0.399 0.118 0.798 0.259 0.614 0.525-0.148 0.296-0.806 0.37-1.294 0.436 0.473 0.037 1.161 0.081 1.456-0.318 0.296-0.466-0.229-0.628-0.695-0.687 0.185-0.096 0.34-0.229 0.436-0.399 0.089-0.222 0.177-0.525-0.015-0.717-0.133-0.126-0.318-0.207-0.503-0.274-0.074-0.030-0.148-0.052-0.222-0.067 0.089-0.2 0.096-0.414 0.015-0.614-0.2-0.547-0.732-0.931-1.249-1.249-0.318-0.185-0.628-0.392-0.991-0.51 0.495 0.281 0.924 0.651 1.353 1.005 0.37 0.347 0.835 0.88 0.68 1.345h-0.074c0.022 0 0.044 0.007 0.074 0.015-0.044 0.126-0.126 0.244-0.266 0.347-0.081 0.059-0.177 0.118-0.266 0.17-0.392-0.081-0.791-0.17-1.19-0.214 0.318 0.089 0.68 0.2 1.013 0.31-0.015 0.007-0.022 0.015-0.037 0.015 0.015-0.007 0.030-0.007 0.044-0.015 0.148 0.052 0.288 0.096 0.407 0.14 0.007 0.007 0.022 0.015 0.037 0.022 0.007 0.007 0.015 0.015 0.022 0.022v0c-0.022 0.067 0.007 0.022-0.067 0.104-0.503 0.274-1.626 0.429-2.432 0.673 0.052-0.111 0.096-0.229 0.126-0.347 0.14-0.444 0.155-0.924 0-1.36-0.155-0.488-0.599-0.865-1.064-1.138 0.577 0.473 0.902 1.020 0.894 1.671 0.022 0.318-0.007 0.51-0.067 0.85-0.044 0.214-0.081 0.429-0.192 0.621-0.081 0.14-0.163 0.281-0.251 0.421-0.096-0.303-0.296-0.599-0.599-0.924 0.525 0.902 0.569 1.419 0.214 2.388-0.022 0.067-0.044 0.118-0.067 0.177 0.015-0.037 0.052-0.081 0.089-0.133z"></path>
<path d="M30.832 9.876c-0.281-0.31-0.695-0.503-1.057-0.724-0.614-0.355-1.301-0.621-2.040-0.724 0.835 0.229 1.478 0.614 2.129 1.057 0.251 0.177 0.606 0.399 0.732 0.554 0.074 0.104 0.096 0.133 0.096 0.274v0.015c0 0.007-0.007 0.007-0.007 0.015-0.163 0.185-0.562 0.14-1.005 0.022-0.273-0.067-0.687-0.192-0.872-0.229 0.407 0.185 0.806 0.384 1.249 0.503 0.643 0.155 1.198-0.192 0.776-0.761z"></path>
<path d="M21.422 7.111c0.902 0.074 1.974 0.111 2.802 0.089-0.909-0.2-1.87-0.185-2.802-0.089z"></path>
<path d="M23.647 6.217c0.044 0 0.089 0 0.133-0.007-0.030-0.007-0.059-0.015-0.089-0.015-0.318-0.044-0.651-0.059-0.968-0.007-0.414 0.089-0.798 0.274-1.161 0.48 0.702-0.2 1.353-0.414 2.085-0.451z"></path>
<path d="M26.352 7.858c0.244-0.096 0.17-0.347 0-0.466-0.2-0.148-0.458-0.229-0.702-0.325 0.399-0.007 0.813-0.14 1.087-0.414 0.333-0.429 0.030-0.939-0.37-1.22-0.303-0.237-0.643-0.451-1.042-0.54 0.362 0.155 0.695 0.444 0.894 0.643 0.17 0.163 0.436 0.48 0.414 0.739 0.044 0.333-0.48 0.673-1.013 0.784-0.007-0.007-0.022-0.007-0.030-0.015-0.362-0.126-0.658-0.229-1.042-0.318 0.473 0.192 1.116 0.517 1.464 0.702 0.133 0.081 0.177 0.111 0.237 0.2 0 0.007 0.007 0.015 0.007 0.022v0s-0.007 0-0.007 0.007h-0.007c-0.015 0-0.037 0.007-0.052 0.007-0.244 0.007-0.724-0.089-1.064-0.155-0.163-0.037-0.325-0.074-0.48-0.126 0.015 0.007 0.022 0.015 0.037 0.015 0.266 0.148 0.554 0.259 0.857 0.347 0.259 0.067 0.54 0.177 0.813 0.111z"></path>
<path d="M26.404 9.063c0.237-0.214 0.2-0.54-0.022-0.739-0.333-0.288-0.806-0.399-1.205-0.606 0.303 0.214 0.739 0.429 0.983 0.65 0.259 0.288 0.17 0.48-0.081 0.614-0.318 0.155-0.976 0.2-1.456 0.118-0.207-0.030-0.421-0.059-0.628-0.096 0.030 0.015 0.067 0.022 0.096 0.037 0.673 0.251 1.693 0.51 2.314 0.022z"></path>
<path d="M27.188 10.6c0.251-0.163 0.569-0.51 0.34-0.776-0.14-0.14-0.407-0.148-0.577-0.044 0.177-0.059 0.414-0.015 0.503 0.118 0.074 0.14-0.037 0.34-0.148 0.495-0.081 0.104-0.2 0.222-0.296 0.318 0.052-0.030 0.118-0.067 0.177-0.111z"></path>
<path d="M24.822 10.622c0.333-0.067 0.665-0.185 0.909-0.407 0.17-0.148 0.31-0.325 0.407-0.51-0.007-0.126-0.207 0.096-0.259 0.118l0.133-0.067c-0.34 0.355-0.739 0.628-1.22 0.798-0.096 0.037-0.207 0.081-0.303 0.118 0.111-0.015 0.222-0.030 0.333-0.052z"></path>
<path d="M14.592 5.862c-0.31 0.266-0.584 0.562-0.865 0.85-0.214 0.222-0.458 0.436-0.636 0.68-0.259 0.333-0.34 0.732-0.414 1.124-0.052 0.281-0.118 0.554-0.14 0.835 0.2-0.503 0.421-1.168 0.628-1.56 0.192-0.318 0.466-0.584 0.71-0.872 0.251-0.303 0.473-0.628 0.71-0.939 0.074-0.096 0.163-0.222 0.214-0.31-0.074 0.059-0.14 0.126-0.207 0.192z"></path>
<path d="M16.189 4.967c-0.133 0.044-1.242 0.421-0.843 0.577 0.281 0.030 0.658 0.089 0.887 0.177-0.074 0.052-0.185 0.126-0.251 0.177-0.133 0.081-0.658 0.355-0.931 0.495-0.096 0.052-0.207 0.089-0.288 0.155-0.067 0.067-0.037 0.185 0.059 0.214 0.111 0.044 0.237-0.015 0.347-0.037 0.214-0.059 0.377-0.089 0.532-0.148 0.007 0 0.022-0.007 0.037-0.015l0.030-0.015c0.126 0.185 0.111 0.399 0 0.503-0.288 0.237-0.577 0.392-0.968 0.591-0.517 0.237-1.109 0.37-1.538 0.724 0.414-0.237 0.872-0.303 1.353-0.436 0.384-0.104 0.739-0.274 1.079-0.466 0.148-0.081 0.296-0.17 0.392-0.303 0.229-0.362 0.044-0.68-0.118-0.798-0.022-0.015-0.037-0.022-0.059-0.030-0.007 0-0.015-0.007-0.022-0.007-0.022-0.007-0.037-0.007-0.059-0.007 0.214-0.118 0.414-0.244 0.599-0.399 0.155-0.096 0.229-0.266 0.044-0.384-0.14-0.081-0.303-0.089-0.466-0.111-0.155-0.022-0.31-0.037-0.466-0.044 0.118-0.096 0.229-0.163 0.362-0.244 0.133-0.074 0.274-0.148 0.407-0.222-0.044 0.022-0.081 0.037-0.118 0.052z"></path>
<path d="M16.174 2.262c-0.207 0.148-0.392 0.31-0.569 0.488 0.030-0.089 0.037-0.185-0.015-0.266-0.192-0.237-0.488 0.030-0.643 0.163-0.229 0.2-0.451 0.399-0.665 0.606-0.37 0.333-0.636 0.747-0.68 1.212-0.022 0.163-0.059 0.347 0.081 0.488-0.059-0.089-0.081-0.185-0.044-0.281 0.037-0.148 0.081-0.303 0.148-0.444 0.163-0.377 0.421-0.591 0.761-0.872 0.192-0.148 0.48-0.399 0.68-0.554-0.007 0.030-0.022 0.052-0.037 0.081-0.163 0.377-0.281 0.606-0.473 0.917-0.089 0.192-0.717 1.064-0.274 1.094 0.148 0.007 0.185-0.133 0.229-0.229 0.022-0.059 0.163-0.355 0.126-0.288 0.303-0.599 0.806-1.242 1.227-1.634 0.229-0.2 0.51-0.399 0.665-0.458 0 0.007 0 0.015 0.007 0.022v0.044c-0.015 0.074-0.052 0.126-0.052 0.192 0 0.148 0.177 0.207 0.318 0.177 0.2-0.015 0.318-0.044 0.444-0.044-0.007 0.103-0.118 0.288-0.273 0.503-0.517 0.732-1.175 1.404-1.781 2.025 0.044-0.030 0.096-0.059 0.14-0.096 0.37-0.281 0.747-0.569 1.087-0.88 0.31-0.037 0.614-0.096 0.924-0.148 0.251-0.037 0.303 0.030 0.281 0.067-0.207 0.296-0.931 0.85-1.264 1.316 0.466-0.377 1.013-0.68 1.427-1.109 0.163-0.163 0.111-0.421-0.148-0.473-0.214-0.044-0.421 0.037-0.621 0.096-0.2 0.067-0.333 0.111-0.517 0.17 0.244-0.222 0.466-0.458 0.673-0.717 0.185-0.266 0.503-0.577 0.384-0.909-0.126-0.229-0.458-0.118-0.68-0.103 0.037-0.163-0.007-0.362-0.2-0.429-0.266-0.030-0.48 0.163-0.665 0.273z"></path>
<path d="M10.097 7.503c-0.399-0.532-0.68-1.116-0.954-1.708-0.096-0.244-0.192-0.48-0.266-0.732-0.022 0-0.037 0.007-0.044 0.007-0.303 0.052-0.407 0.214-0.274 0.466 0.118 0.259 0.31 0.473 0.466 0.658 0.133 0.17 0.266 0.244 0.296 0.384 0 0.111-0.133 0.155-0.237 0.126h-0.007q-0.007 0-0.007 0.007s-0.007 0-0.007 0.007-0.007 0.007-0.007 0.015v0.074c0.17 0.495 0.628 1.013 1.19 1.427 0.214 0.17 0.547 0.392 0.887 0.451-0.377-0.007-0.717-0.17-1.020-0.347-0.599-0.34-1.146-0.835-1.36-1.449-0.052-0.17 0.022-0.34 0.177-0.414-0.037-0.052-0.081-0.104-0.118-0.155-0.177-0.266-0.621-0.894-0.31-1.153 0.104-0.089 0.251-0.104 0.384-0.104-0.044-0.148-0.089-0.288-0.126-0.436-0.111-0.407-0.17-0.88 0.163-1.212 0.089-0.103 0.192-0.192 0.303-0.281 0.022-0.155 0.044-0.303 0.059-0.458 0.030-0.17 0.059-0.34 0.104-0.503 0.007-0.007 0.007-0.022 0.015-0.030 0 0.007-0.007 0.015 0 0.007 0.007-0.015 0.015-0.030 0.015-0.044v-0.022c0.007-0.007 0.015-0.022 0.015-0.037v-0.007c0-0.007 0.007-0.015 0.007-0.022v-0.007c0-0.007 0.007-0.007 0.007-0.015v0-0.007c0.007-0.007 0.015-0.015 0.015-0.030 0-0.007 0.007-0.007 0.007-0.015 0 0 0.007 0 0.007-0.007 0.007 0 0.007-0.007 0.015-0.015h0.022c0.007 0 0.015-0.007 0.022-0.007h-0.007c0.007 0 0.015 0 0.030-0.007h0.089c0.111 0.044 0.148 0.155 0.185 0.244 0.214 0.51 0.266 1.050 0.303 1.589 0 0.030 0.022 0.192 0 0.103-0.163-0.503-0.325-1.094-0.525-1.515-0.089 0.303-0.155 0.606-0.244 0.909-0.081 0.296-0.17 0.599-0.133 0.909-0.111-0.325-0.089-0.665-0.044-1.005-0.089 0.103-0.177 0.222-0.251 0.34-0.192 0.31-0.126 0.591-0.022 0.902 0.104 0.296 0.222 0.591 0.34 0.887 0.517 1.353 1.449 2.765 2.506 3.888-0.628-0.473-1.175-1.050-1.663-1.656z"></path>
<path d="M11.265 5.123c0.325 0.621 0.436 1.345 0.54 2.040 0.089 0.577 0.237 1.138 0.392 1.708-0.037-0.806-0.052-1.626-0.244-2.417-0.111-0.399-0.281-0.784-0.532-1.131-0.052-0.081-0.118-0.163-0.177-0.229 0.007 0 0.015 0.015 0.022 0.030z"></path>
<path d="M10.489 4.916c0.037 0.022 0.104 0.067 0.118 0.081 0.133 0.111 0.266 0.222 0.34 0.355 0.096 0.2 0.074 0.37 0.104 0.621 0.037 0.399 0.074 0.791 0.118 1.19 0.037 0.244 0.030 0.51 0.2 0.724-0.096-0.237-0.037-0.48-0.030-0.724 0.022-0.355 0.022-0.717-0.022-1.072-0.081-0.591-0.126-0.924-0.821-1.183-0.015-0.007-0.037-0.007-0.044-0.015 0.007 0.007 0.022 0.007 0.037 0.022z"></path>
<path d="M9.484 3.681c0.214 0.185 0.414 0.392 0.547 0.636 0.074 0.163 0.081 0.392 0.104 0.621 0.074 0.54 0.177 1.101 0.444 1.604-0.126-0.584-0.126-1.264-0.214-1.789-0.030-0.214-0.074-0.436-0.229-0.606-0.185-0.2-0.414-0.384-0.673-0.503-0.030-0.007-0.052-0.022-0.081-0.022 0.037 0 0.074 0.037 0.104 0.059z"></path>
<path d="M12.995 4.206c-0.148 0.118-0.229 0.288-0.318 0.451-0.118 0.229-0.229 0.466-0.303 0.71-0.074 0.281-0.214 0.584-0.177 0.872 0-0.111 0.044-0.207 0.089-0.303 0.067-0.148 0.177-0.37 0.222-0.458 0.14-0.251 0.34-0.628 0.54-0.887 0.044 0.399 0.081 0.954 0.133 1.39 0.037 0.296 0.044 0.606 0.118 0.887v-0.155c0.052-0.584 0.096-1.161 0.067-1.745-0.022-0.222 0.037-0.51-0.089-0.71-0.052-0.104-0.2-0.126-0.281-0.052z"></path>
<path d="M6.808 16.876c0.14-0.384 0.237-0.776 0.347-1.161 0.081-0.303 0.185-0.599 0.229-0.902 0.059-0.414-0.059-0.806-0.185-1.183-0.089-0.266-0.17-0.54-0.288-0.798 0.067 0.54 0.2 1.227 0.214 1.663-0.007 0.37-0.126 0.739-0.2 1.109-0.074 0.392-0.104 0.776-0.163 1.168-0.015 0.118-0.037 0.273-0.037 0.377 0.022-0.096 0.052-0.185 0.081-0.273z"></path>
<path d="M5.847 18.436c0.096-0.104 0.887-0.968 0.458-0.917-0.259 0.111-0.621 0.244-0.857 0.281 0.037-0.081 0.096-0.2 0.133-0.273 0.074-0.133 0.407-0.636 0.577-0.887 0.059-0.089 0.14-0.177 0.177-0.273 0.030-0.089-0.059-0.177-0.155-0.163-0.118 0.015-0.2 0.133-0.281 0.2-0.155 0.148-0.288 0.266-0.392 0.392-0.007 0.007-0.015 0.015-0.022 0.030l-0.022 0.022c-0.2-0.104-0.288-0.296-0.244-0.444 0.14-0.347 0.31-0.621 0.562-0.991 0.333-0.458 0.791-0.857 0.991-1.382-0.251 0.414-0.614 0.687-0.968 1.042-0.288 0.274-0.51 0.599-0.717 0.931-0.089 0.14-0.177 0.296-0.192 0.451-0.022 0.421 0.288 0.614 0.488 0.643 0.022 0 0.044 0 0.067-0.007 0.007 0 0.015 0 0.030-0.007 0.022-0.007 0.037-0.015 0.052-0.022-0.126 0.207-0.244 0.421-0.333 0.636-0.089 0.163-0.067 0.347 0.148 0.355 0.155 0 0.31-0.074 0.458-0.126 0.148-0.059 0.288-0.118 0.429-0.192-0.059 0.14-0.118 0.251-0.2 0.392-0.081 0.133-0.17 0.266-0.251 0.392 0.015-0.022 0.037-0.052 0.067-0.081z"></path>
<path d="M7.178 20.786c0.111-0.229 0.192-0.466 0.259-0.702 0.022 0.096 0.059 0.177 0.14 0.229 0.281 0.118 0.407-0.266 0.48-0.458 0.104-0.281 0.2-0.569 0.281-0.857 0.163-0.466 0.192-0.961 0-1.39-0.059-0.155-0.118-0.333-0.31-0.384 0.096 0.052 0.163 0.118 0.177 0.222 0.037 0.148 0.074 0.303 0.089 0.458 0.044 0.407-0.081 0.724-0.244 1.131-0.096 0.229-0.229 0.584-0.325 0.813 0-0.030-0.007-0.059-0.007-0.089-0.044-0.407-0.052-0.665-0.037-1.035-0.015-0.207 0.111-1.279-0.296-1.087-0.133 0.067-0.104 0.207-0.089 0.31 0.015 0.059 0.030 0.392 0.030 0.31 0.030 0.673-0.104 1.478-0.274 2.025-0.104 0.281-0.251 0.591-0.362 0.717l-0.015-0.015c-0.007-0.007-0.015-0.022-0.015-0.030v-0.007c-0.022-0.074-0.015-0.14-0.044-0.192-0.067-0.126-0.251-0.096-0.362 0-0.163 0.111-0.259 0.2-0.362 0.259-0.044-0.096-0.037-0.31-0.007-0.569 0.096-0.887 0.347-1.796 0.577-2.632-0.030 0.052-0.052 0.104-0.074 0.148-0.192 0.429-0.37 0.857-0.525 1.294-0.251 0.185-0.488 0.384-0.739 0.577-0.207 0.155-0.281 0.118-0.281 0.074 0.037-0.362 0.407-1.198 0.466-1.767-0.222 0.554-0.547 1.087-0.71 1.663-0.059 0.222 0.104 0.421 0.362 0.34 0.207-0.067 0.347-0.237 0.495-0.384 0.14-0.148 0.237-0.259 0.37-0.399-0.104 0.31-0.185 0.628-0.237 0.954-0.037 0.325-0.155 0.747 0.111 0.976 0.222 0.133 0.458-0.118 0.643-0.244 0.052 0.163 0.177 0.31 0.377 0.273 0.259-0.067 0.347-0.34 0.458-0.532z"></path>
<path d="M9.935 13.261c0.606 0.266 1.138 0.643 1.663 1.027 0.2 0.163 0.399 0.333 0.591 0.51 0.015-0.015 0.030-0.022 0.037-0.030 0.237-0.192 0.251-0.384 0.015-0.54-0.229-0.163-0.503-0.266-0.732-0.347-0.192-0.081-0.355-0.081-0.444-0.2-0.052-0.096 0.037-0.2 0.148-0.222l0.015-0.015v-0.030c-0.007-0.015-0.015-0.022-0.022-0.037 0-0.007-0.007-0.007-0.015-0.015-0.392-0.347-1.042-0.577-1.73-0.673-0.274-0.044-0.665-0.081-0.998 0.037 0.333-0.177 0.702-0.2 1.064-0.192 0.695 0.007 1.412 0.17 1.892 0.599 0.126 0.118 0.148 0.31 0.044 0.444 0.059 0.030 0.118 0.052 0.177 0.081 0.281 0.148 0.976 0.48 0.835 0.857-0.044 0.126-0.17 0.207-0.288 0.274 0.111 0.104 0.222 0.207 0.325 0.318 0.296 0.303 0.577 0.687 0.451 1.138-0.030 0.133-0.074 0.266-0.126 0.392 0.059 0.14 0.111 0.288 0.17 0.429 0.059 0.163 0.111 0.325 0.155 0.495v0.030c0-0.007 0-0.015 0-0.007 0 0.015 0 0.030 0.007 0.044 0 0.007 0.007 0.015 0.007 0.022v0.155c0 0.007-0.007 0.015-0.007 0.015v0.015s-0.007 0.007-0.015 0.007v0l-0.007 0.007c-0.007 0.007-0.015 0.015-0.022 0.015s-0.007 0-0.015 0.007v0c-0.007 0-0.007 0.007-0.015 0.007h-0.007c-0.007 0-0.022 0.007-0.030 0.015v0c-0.007 0-0.007 0.007-0.015 0.015-0.118 0.015-0.2-0.067-0.281-0.126-0.436-0.34-0.747-0.791-1.042-1.242-0.015-0.030-0.111-0.155-0.052-0.089 0.384 0.362 0.813 0.798 1.19 1.072-0.067-0.303-0.155-0.606-0.229-0.909s-0.14-0.606-0.325-0.857c0.259 0.229 0.399 0.54 0.525 0.857 0.022-0.133 0.052-0.281 0.052-0.421 0.015-0.37-0.177-0.577-0.414-0.798-0.237-0.214-0.48-0.414-0.732-0.614-1.109-0.924-2.609-1.708-4.080-2.181 0.798 0.126 1.56 0.362 2.277 0.658z"></path>
<path d="M10.075 15.908c-0.584-0.384-1.035-0.961-1.464-1.523-0.355-0.458-0.761-0.88-1.168-1.301 0.421 0.687 0.835 1.397 1.39 1.996 0.288 0.288 0.628 0.554 1.013 0.732 0.089 0.044 0.185 0.081 0.266 0.118-0.015-0.007-0.030-0.015-0.037-0.022z"></path>
<path d="M10.851 15.708c-0.044 0-0.126-0.007-0.148-0.015-0.17-0.030-0.34-0.067-0.473-0.14-0.185-0.126-0.244-0.288-0.392-0.488-0.222-0.333-0.451-0.658-0.68-0.983-0.148-0.2-0.281-0.429-0.525-0.54 0.2 0.155 0.266 0.407 0.377 0.621 0.155 0.325 0.325 0.636 0.54 0.924 0.362 0.48 0.562 0.747 1.294 0.636 0.015 0 0.037-0.007 0.044-0.015h-0.037z"></path>
<path d="M12.33 16.299c-0.281-0.052-0.554-0.14-0.784-0.288-0.148-0.104-0.259-0.303-0.399-0.495-0.333-0.436-0.695-0.872-1.168-1.19 0.392 0.444 0.724 1.042 1.057 1.456 0.126 0.17 0.281 0.34 0.495 0.421 0.259 0.089 0.547 0.133 0.835 0.111 0.030 0 0.059-0.007 0.081-0.022-0.030 0.022-0.081 0.015-0.118 0.007z"></path>
<path d="M9.011 17.549c0.074-0.177 0.059-0.37 0.059-0.547-0.007-0.259-0.030-0.517-0.074-0.769-0.067-0.281-0.096-0.614-0.274-0.85 0.052 0.096 0.059 0.2 0.067 0.31 0.015 0.163 0.030 0.407 0.030 0.51 0 0.288 0.007 0.717-0.037 1.035-0.229-0.325-0.532-0.791-0.798-1.146-0.17-0.244-0.333-0.503-0.532-0.724 0.030 0.044 0.052 0.089 0.074 0.14 0.237 0.532 0.48 1.064 0.791 1.56 0.133 0.185 0.214 0.466 0.421 0.584 0.096 0.044 0.229 0 0.274-0.104z"></path>
</svg>
