<!-- Generated by IcoMoon.io -->
<svg version="1.1" xmlns="http://www.w3.org/2000/svg" width="19" height="18" viewBox="0 0 19 18">
<title>money</title>
<path d="M7.714 11.571h3.857v-0.964h-1.286v-4.5h-1.145l-1.487 1.376 0.773 0.804c0.241-0.211 0.392-0.321 0.552-0.573h0.020v2.893h-1.286v0.964zM12.857 9c0 1.828-1.105 4.179-3.214 4.179s-3.214-2.35-3.214-4.179 1.105-4.179 3.214-4.179 3.214 2.35 3.214 4.179zM18 11.571v-5.143c-1.416 0-2.571-1.155-2.571-2.571h-11.571c0 1.416-1.155 2.571-2.571 2.571v5.143c1.416 0 2.571 1.155 2.571 2.571h11.571c0-1.416 1.155-2.571 2.571-2.571zM19.286 3.214v11.571c0 0.352-0.291 0.643-0.643 0.643h-18c-0.352 0-0.643-0.291-0.643-0.643v-11.571c0-0.352 0.291-0.643 0.643-0.643h18c0.352 0 0.643 0.291 0.643 0.643z"></path>
</svg>
