<!-- Generated by IcoMoon.io -->
<svg version="1.1" xmlns="http://www.w3.org/2000/svg" width="18" height="18" viewBox="0 0 18 18">
<title>note</title>
<path d="M8.92 11.893l1.165-1.165-1.527-1.527-1.165 1.165v0.563h0.964v0.964h0.563zM13.339 4.661c-0.090-0.090-0.241-0.080-0.331 0.010l-3.516 3.516c-0.090 0.090-0.1 0.241-0.010 0.331s0.241 0.080 0.331-0.010l3.516-3.516c0.090-0.090 0.1-0.241 0.010-0.331zM14.143 10.627v1.908c0 1.597-1.296 2.893-2.893 2.893h-8.357c-1.597 0-2.893-1.296-2.893-2.893v-8.357c0-1.597 1.296-2.893 2.893-2.893h8.357c0.402 0 0.804 0.080 1.175 0.251 0.090 0.040 0.161 0.131 0.181 0.231 0.020 0.11-0.010 0.211-0.090 0.291l-0.492 0.492c-0.090 0.090-0.211 0.121-0.321 0.080-0.151-0.040-0.301-0.060-0.452-0.060h-8.357c-0.884 0-1.607 0.723-1.607 1.607v8.357c0 0.884 0.723 1.607 1.607 1.607h8.357c0.884 0 1.607-0.723 1.607-1.607v-1.266c0-0.080 0.030-0.161 0.090-0.221l0.643-0.643c0.1-0.1 0.231-0.121 0.352-0.070s0.201 0.161 0.201 0.291zM13.179 3.214l2.893 2.893-6.75 6.75h-2.893v-2.893zM17.638 4.54l-0.924 0.924-2.893-2.893 0.924-0.924c0.372-0.372 0.994-0.372 1.366 0l1.527 1.527c0.372 0.372 0.372 0.994 0 1.366z"></path>
</svg>
