<!-- Generated by IcoMoon.io -->
<svg version="1.1" xmlns="http://www.w3.org/2000/svg" width="14" height="18" viewBox="0 0 14 18">
<title>street-view</title>
<path d="M14.143 15.429c0 1.768-3.666 2.571-7.071 2.571s-7.071-0.804-7.071-2.571c0-1.366 2.039-2.009 3.747-2.3 0.352-0.060 0.683 0.171 0.743 0.522s-0.171 0.683-0.522 0.743c-2.069 0.362-2.652 0.924-2.682 1.045 0.1 0.342 2.029 1.276 5.786 1.276s5.685-0.934 5.786-1.296c-0.030-0.1-0.613-0.663-2.682-1.025-0.352-0.060-0.583-0.392-0.522-0.743s0.392-0.583 0.743-0.522c1.708 0.291 3.747 0.934 3.747 2.3zM10.286 6.429v3.857c0 0.352-0.291 0.643-0.643 0.643h-0.643v3.857c0 0.352-0.291 0.643-0.643 0.643h-2.571c-0.352 0-0.643-0.291-0.643-0.643v-3.857h-0.643c-0.352 0-0.643-0.291-0.643-0.643v-3.857c0-0.713 0.573-1.286 1.286-1.286h3.857c0.713 0 1.286 0.573 1.286 1.286zM9.321 2.571c0 1.246-1.004 2.25-2.25 2.25s-2.25-1.004-2.25-2.25 1.004-2.25 2.25-2.25 2.25 1.004 2.25 2.25z"></path>
</svg>
